<mxfile host="drawio-plugin" modified="2022-03-29T10:29:44.009Z" agent="5.0 (Windows NT 6.2; Win64; x64) AppleWebKit/537.36 (KHTML, like Gecko) Chrome/89.0.4389.114 Safari/537.36" etag="J8pjq72NmiGHm2X3ILlM" version="15.5.4" type="embed"><diagram name="Main Layout" id="03018318-947c-dd8e-b7a3-06fadd420f32"><mxGraphModel dx="1694" dy="945" grid="0" gridSize="10" guides="1" tooltips="1" connect="1" arrows="1" fold="1" page="1" pageScale="1" pageWidth="1100" pageHeight="850" background="#333333" math="0" shadow="0"><root><mxCell id="0"/><mxCell id="1" parent="0"/><mxCell id="677b7b8949515195-1" value="" style="whiteSpace=wrap;html=1;rounded=0;shadow=0;labelBackgroundColor=none;strokeColor=#FFFFFF;strokeWidth=1;fillColor=none;fontFamily=Verdana;fontSize=12;fontColor=#FFFFFF;align=center;comic=1;" parent="1" vertex="1"><mxGeometry x="20" y="10" width="1060" height="820" as="geometry"/></mxCell><mxCell id="677b7b8949515195-4" value="File" style="text;html=1;points=[];align=left;verticalAlign=top;spacingTop=-4;fontSize=14;fontFamily=Verdana;fontColor=#FFFFFF;" parent="1" vertex="1"><mxGeometry x="30" y="21" width="60" height="20" as="geometry"/></mxCell><mxCell id="677b7b8949515195-5" value="Edit" style="text;html=1;points=[];align=left;verticalAlign=top;spacingTop=-4;fontSize=14;fontFamily=Verdana;fontColor=#FFFFFF;" parent="1" vertex="1"><mxGeometry x="70" y="21" width="60" height="20" as="geometry"/></mxCell><mxCell id="677b7b8949515195-6" value="View" style="text;html=1;points=[];align=left;verticalAlign=top;spacingTop=-4;fontSize=14;fontFamily=Verdana;fontColor=#FFFFFF;" parent="1" vertex="1"><mxGeometry x="110" y="21" width="60" height="20" as="geometry"/></mxCell><mxCell id="677b7b8949515195-8" value="" style="whiteSpace=wrap;html=1;rounded=0;shadow=0;labelBackgroundColor=none;strokeWidth=1;fillColor=none;fontFamily=Verdana;fontSize=12;align=center;comic=1;fontColor=#FFFFFF;" parent="1" vertex="1"><mxGeometry x="30" y="160" width="210" height="660" as="geometry"/></mxCell><mxCell id="677b7b8949515195-9" value="" style="line;strokeWidth=1;html=1;rounded=0;shadow=0;labelBackgroundColor=none;fillColor=none;fontFamily=Verdana;fontSize=14;fontColor=#FFFFFF;align=center;comic=1;" parent="1" vertex="1"><mxGeometry x="20" y="140" width="1060" height="20" as="geometry"/></mxCell><mxCell id="677b7b8949515195-11" value="Rotate 90°" style="text;html=1;points=[];align=left;verticalAlign=top;spacingTop=-4;fontSize=14;fontFamily=Verdana;fontColor=#FFFFFF;" parent="1" vertex="1"><mxGeometry x="30" y="80" width="60" height="20" as="geometry"/></mxCell><mxCell id="677b7b8949515195-15" value="Properties of selected object, eg. slider velocity for sliders, etc" style="whiteSpace=wrap;html=1;rounded=0;shadow=0;labelBackgroundColor=none;strokeWidth=1;fillColor=none;fontFamily=Verdana;fontSize=12;align=left;verticalAlign=top;spacing=10;comic=1;fontColor=#FFFFFF;" parent="1" vertex="1"><mxGeometry x="250" y="600" width="580" height="220" as="geometry"/></mxCell><mxCell id="677b7b8949515195-16" value="" style="verticalLabelPosition=bottom;shadow=0;dashed=0;align=center;html=1;verticalAlign=top;strokeWidth=1;shape=mxgraph.mockup.graphics.simpleIcon;strokeColor=#999999;rounded=0;labelBackgroundColor=none;fontFamily=Verdana;fontSize=14;fontColor=#FFFFFF;comic=1;sketch=0;" parent="1" vertex="1"><mxGeometry x="250" y="160" width="580" height="430" as="geometry"/></mxCell><mxCell id="677b7b8949515195-25" value="" style="whiteSpace=wrap;html=1;rounded=0;shadow=0;labelBackgroundColor=none;strokeWidth=1;fillColor=none;fontFamily=Verdana;fontSize=12;align=center;comic=1;fontColor=#FFFFFF;" parent="1" vertex="1"><mxGeometry x="840" y="160" width="230" height="300" as="geometry"/></mxCell><mxCell id="677b7b8949515195-26" value="Osu modding page if available" style="whiteSpace=wrap;html=1;rounded=0;shadow=0;labelBackgroundColor=none;strokeWidth=1;fillColor=none;fontFamily=Verdana;fontSize=12;align=center;comic=1;fontColor=#FFFFFF;" parent="1" vertex="1"><mxGeometry x="840" y="470" width="230" height="350" as="geometry"/></mxCell><mxCell id="677b7b8949515195-27" value="Basic" style="text;html=1;points=[];align=left;verticalAlign=top;spacingTop=-4;fontSize=16;fontFamily=Verdana;strokeColor=none;fontStyle=4;sketch=1;fontColor=#FFFFFF;" parent="1" vertex="1"><mxGeometry x="40" y="330" width="45" height="20" as="geometry"/></mxCell><mxCell id="677b7b8949515195-44" value="main" style="text;html=1;points=[];align=left;verticalAlign=top;spacingTop=-4;fontSize=14;fontFamily=Verdana;fontColor=#7EA6E0;" parent="1" vertex="1"><mxGeometry x="880" y="200" width="170" height="20" as="geometry"/></mxCell><mxCell id="677b7b8949515195-45" value="jumpstreams instead" style="text;html=1;points=[];align=left;verticalAlign=top;spacingTop=-4;fontSize=14;fontFamily=Verdana;fontColor=#FFFFFF;" parent="1" vertex="1"><mxGeometry x="880" y="220" width="170" height="20" as="geometry"/></mxCell><mxCell id="677b7b8949515195-46" value="mod by xxx" style="text;html=1;points=[];align=left;verticalAlign=top;spacingTop=-4;fontSize=14;fontFamily=Verdana;fontColor=#FFFFFF;" parent="1" vertex="1"><mxGeometry x="880" y="240" width="170" height="20" as="geometry"/></mxCell><mxCell id="677b7b8949515195-47" value="Easy" style="text;html=1;points=[];align=left;verticalAlign=top;spacingTop=-4;fontSize=14;fontFamily=Verdana;fontColor=#FFFFFF;" parent="1" vertex="1"><mxGeometry x="880" y="320" width="70" height="20" as="geometry"/></mxCell><mxCell id="677b7b8949515195-48" value="Normal" style="text;html=1;points=[];align=left;verticalAlign=top;spacingTop=-4;fontSize=14;fontFamily=Verdana;fontColor=#FFFFFF;" parent="1" vertex="1"><mxGeometry x="880" y="340" width="70" height="20" as="geometry"/></mxCell><mxCell id="677b7b8949515195-49" value="Hard" style="text;html=1;points=[];align=left;verticalAlign=top;spacingTop=-4;fontSize=14;fontFamily=Verdana;fontColor=#FFFFFF;" parent="1" vertex="1"><mxGeometry x="880" y="360" width="70" height="20" as="geometry"/></mxCell><mxCell id="CzHOy1YtrKSu_eFW259N-1" value="Rotate 60°" style="text;html=1;points=[];align=left;verticalAlign=top;spacingTop=-4;fontSize=14;fontFamily=Verdana;fontColor=#FFFFFF;" parent="1" vertex="1"><mxGeometry x="120" y="80" width="60" height="20" as="geometry"/></mxCell><mxCell id="CzHOy1YtrKSu_eFW259N-2" value="Rotate 5°" style="text;html=1;points=[];align=left;verticalAlign=top;spacingTop=-4;fontSize=14;fontFamily=Verdana;fontColor=#FFFFFF;" parent="1" vertex="1"><mxGeometry x="210" y="80" width="60" height="20" as="geometry"/></mxCell><mxCell id="CzHOy1YtrKSu_eFW259N-3" value="Merge" style="text;html=1;points=[];align=left;verticalAlign=top;spacingTop=-4;fontSize=14;fontFamily=Verdana;fontColor=#FFFFFF;" parent="1" vertex="1"><mxGeometry x="290" y="80" width="60" height="20" as="geometry"/></mxCell><mxCell id="CzHOy1YtrKSu_eFW259N-4" value="To Stream" style="text;html=1;points=[];align=left;verticalAlign=top;spacingTop=-4;fontSize=14;fontFamily=Verdana;fontColor=#FFFFFF;" parent="1" vertex="1"><mxGeometry x="350" y="80" width="60" height="20" as="geometry"/></mxCell><mxCell id="CzHOy1YtrKSu_eFW259N-5" value="..." style="text;html=1;points=[];align=left;verticalAlign=top;spacingTop=-4;fontSize=14;fontFamily=Verdana;fontColor=#FFFFFF;" parent="1" vertex="1"><mxGeometry x="440" y="80" width="60" height="20" as="geometry"/></mxCell><mxCell id="CzHOy1YtrKSu_eFW259N-6" value="Timeline" style="whiteSpace=wrap;html=1;rounded=0;shadow=0;labelBackgroundColor=none;strokeWidth=1;fillColor=none;fontFamily=Verdana;fontSize=12;align=center;comic=1;fontColor=#FFFFFF;" parent="1" vertex="1"><mxGeometry x="30" y="110" width="1040" height="30" as="geometry"/></mxCell><mxCell id="CzHOy1YtrKSu_eFW259N-8" value="Circle" style="text;html=1;points=[];align=left;verticalAlign=top;spacingTop=-4;fontSize=14;fontFamily=Verdana;sketch=1;fontColor=#FFFFFF;" parent="1" vertex="1"><mxGeometry x="40" y="390" width="45" height="20" as="geometry"/></mxCell><mxCell id="CzHOy1YtrKSu_eFW259N-9" value="1" style="ellipse;whiteSpace=wrap;html=1;aspect=fixed;sketch=1;fontColor=#FFFFFF;" parent="1" vertex="1"><mxGeometry x="45" y="360" width="30" height="30" as="geometry"/></mxCell><mxCell id="CzHOy1YtrKSu_eFW259N-10" value="Slider" style="text;html=1;points=[];align=left;verticalAlign=top;spacingTop=-4;fontSize=14;fontFamily=Verdana;sketch=1;fontColor=#FFFFFF;" parent="1" vertex="1"><mxGeometry x="100" y="390" width="45" height="20" as="geometry"/></mxCell><mxCell id="CzHOy1YtrKSu_eFW259N-11" value="" style="rounded=1;whiteSpace=wrap;html=1;arcSize=50;sketch=1;fontColor=#FFFFFF;" parent="1" vertex="1"><mxGeometry x="90" y="360" width="60" height="30" as="geometry"/></mxCell><mxCell id="CzHOy1YtrKSu_eFW259N-12" value="•" style="ellipse;whiteSpace=wrap;html=1;aspect=fixed;sketch=1;fontColor=#FFFFFF;" parent="1" vertex="1"><mxGeometry x="170" y="360" width="30" height="30" as="geometry"/></mxCell><mxCell id="CzHOy1YtrKSu_eFW259N-13" value="Spinner" style="text;html=1;points=[];align=left;verticalAlign=top;spacingTop=-4;fontSize=14;fontFamily=Verdana;sketch=1;fontColor=#FFFFFF;" parent="1" vertex="1"><mxGeometry x="155" y="390" width="60" height="20" as="geometry"/></mxCell><mxCell id="CzHOy1YtrKSu_eFW259N-15" value="Favourites" style="text;html=1;points=[];align=left;verticalAlign=top;spacingTop=-4;fontSize=16;fontFamily=Verdana;strokeColor=none;fontStyle=4;sketch=1;fontColor=#FFFFFF;" parent="1" vertex="1"><mxGeometry x="40" y="260" width="90" height="20" as="geometry"/></mxCell><mxCell id="CzHOy1YtrKSu_eFW259N-16" value="My Patterns" style="text;html=1;points=[];align=left;verticalAlign=top;spacingTop=-4;fontSize=16;fontFamily=Verdana;strokeColor=none;fontStyle=4;sketch=1;fontColor=#FFFFFF;" parent="1" vertex="1"><mxGeometry x="40" y="470" width="170" height="20" as="geometry"/></mxCell><mxCell id="CzHOy1YtrKSu_eFW259N-17" value="Recently Used" style="text;html=1;points=[];align=left;verticalAlign=top;spacingTop=-4;fontSize=16;fontFamily=Verdana;strokeColor=none;fontStyle=4;fontColor=#FFFFFF;" parent="1" vertex="1"><mxGeometry x="40" y="170" width="120" height="20" as="geometry"/></mxCell><mxCell id="CzHOy1YtrKSu_eFW259N-18" value="Circle" style="text;html=1;points=[];align=left;verticalAlign=top;spacingTop=-4;fontSize=14;fontFamily=Verdana;sketch=1;fontColor=#FFFFFF;" parent="1" vertex="1"><mxGeometry x="40" y="230" width="50" height="20" as="geometry"/></mxCell><mxCell id="CzHOy1YtrKSu_eFW259N-19" value="1" style="ellipse;whiteSpace=wrap;html=1;aspect=fixed;sketch=1;fontColor=#FFFFFF;" parent="1" vertex="1"><mxGeometry x="45" y="200" width="30" height="30" as="geometry"/></mxCell><mxCell id="CzHOy1YtrKSu_eFW259N-20" value="Slider" style="text;html=1;points=[];align=left;verticalAlign=top;spacingTop=-4;fontSize=14;fontFamily=Verdana;sketch=1;fontColor=#FFFFFF;" parent="1" vertex="1"><mxGeometry x="100" y="230" width="50" height="20" as="geometry"/></mxCell><mxCell id="CzHOy1YtrKSu_eFW259N-21" value="" style="rounded=1;whiteSpace=wrap;html=1;arcSize=50;sketch=1;fontColor=#FFFFFF;" parent="1" vertex="1"><mxGeometry x="90" y="200" width="60" height="30" as="geometry"/></mxCell><mxCell id="CzHOy1YtrKSu_eFW259N-22" value="•" style="ellipse;whiteSpace=wrap;html=1;aspect=fixed;sketch=1;fontColor=#FFFFFF;" parent="1" vertex="1"><mxGeometry x="170" y="200" width="30" height="30" as="geometry"/></mxCell><mxCell id="CzHOy1YtrKSu_eFW259N-23" value="Spinner" style="text;html=1;points=[];align=left;verticalAlign=top;spacingTop=-4;fontSize=14;fontFamily=Verdana;sketch=1;fontColor=#FFFFFF;" parent="1" vertex="1"><mxGeometry x="160" y="230" width="60" height="20" as="geometry"/></mxCell><mxCell id="CzHOy1YtrKSu_eFW259N-25" value="Layers" style="text;html=1;points=[];align=left;verticalAlign=top;spacingTop=-4;fontSize=16;fontFamily=Verdana;strokeColor=none;fontStyle=4;fontColor=#FFFFFF;" parent="1" vertex="1"><mxGeometry x="850" y="170" width="45" height="20" as="geometry"/></mxCell><mxCell id="CzHOy1YtrKSu_eFW259N-26" value="Difficulties" style="text;html=1;points=[];align=left;verticalAlign=top;spacingTop=-4;fontSize=16;fontFamily=Verdana;strokeColor=none;fontStyle=4;fontColor=#FFFFFF;" parent="1" vertex="1"><mxGeometry x="850" y="290" width="45" height="20" as="geometry"/></mxCell><mxCell id="CzHOy1YtrKSu_eFW259N-27" value="Insane" style="text;html=1;points=[];align=left;verticalAlign=top;spacingTop=-4;fontSize=14;fontFamily=Verdana;fontColor=#7EA6E0;" parent="1" vertex="1"><mxGeometry x="880" y="380" width="70" height="20" as="geometry"/></mxCell><mxCell id="CzHOy1YtrKSu_eFW259N-28" value="Extra" style="text;html=1;points=[];align=left;verticalAlign=top;spacingTop=-4;fontSize=14;fontFamily=Verdana;fontColor=#FFFFFF;" parent="1" vertex="1"><mxGeometry x="880" y="400" width="70" height="20" as="geometry"/></mxCell><mxCell id="CzHOy1YtrKSu_eFW259N-29" value="Hisounds" style="text;html=1;points=[];align=left;verticalAlign=top;spacingTop=-4;fontSize=14;fontFamily=Verdana;fontColor=#FFFFFF;" parent="1" vertex="1"><mxGeometry x="880" y="420" width="70" height="20" as="geometry"/></mxCell><mxCell id="CzHOy1YtrKSu_eFW259N-30" value="1" style="ellipse;whiteSpace=wrap;html=1;aspect=fixed;sketch=1;fontColor=#FFFFFF;" parent="1" vertex="1"><mxGeometry x="90" y="200" width="30" height="30" as="geometry"/></mxCell><mxCell id="CzHOy1YtrKSu_eFW259N-31" value="1" style="ellipse;whiteSpace=wrap;html=1;aspect=fixed;sketch=1;fontColor=#FFFFFF;" parent="1" vertex="1"><mxGeometry x="90" y="360" width="30" height="30" as="geometry"/></mxCell><mxCell id="CzHOy1YtrKSu_eFW259N-32" value="" style="shape=image;verticalLabelPosition=bottom;labelBackgroundColor=default;verticalAlign=top;aspect=fixed;imageAspect=0;image=data:image/svg+xml,PHN2ZyB4bWxucz0iaHR0cDovL3d3dy53My5vcmcvMjAwMC9zdmciIHdpZHRoPSIxNiIgaGVpZ2h0PSIxNiIgZmlsbD0iY3VycmVudENvbG9yIiBjbGFzcz0iYmkgYmktcGx1cyIgdmlld0JveD0iMCAwIDE2IDE2Ij4mI3hhOyAgPHBhdGggZD0iTTggNGEuNS41IDAgMCAxIC41LjV2M2gzYS41LjUgMCAwIDEgMCAxaC0zdjNhLjUuNSAwIDAgMS0xIDB2LTNoLTNhLjUuNSAwIDAgMSAwLTFoM3YtM0EuNS41IDAgMCAxIDggNHoiLz4mI3hhOzwvc3ZnPg==;fontColor=#FFFFFF;" parent="1" vertex="1"><mxGeometry x="1040" y="294" width="16" height="16" as="geometry"/></mxCell><mxCell id="CzHOy1YtrKSu_eFW259N-33" value="" style="shape=image;verticalLabelPosition=bottom;labelBackgroundColor=default;verticalAlign=top;aspect=fixed;imageAspect=0;image=data:image/svg+xml,PHN2ZyB4bWxucz0iaHR0cDovL3d3dy53My5vcmcvMjAwMC9zdmciIHdpZHRoPSIxNiIgaGVpZ2h0PSIxNiIgZmlsbD0iY3VycmVudENvbG9yIiBjbGFzcz0iYmkgYmktcGx1cyIgdmlld0JveD0iMCAwIDE2IDE2Ij4mI3hhOyAgPHBhdGggZD0iTTggNGEuNS41IDAgMCAxIC41LjV2M2gzYS41LjUgMCAwIDEgMCAxaC0zdjNhLjUuNSAwIDAgMS0xIDB2LTNoLTNhLjUuNSAwIDAgMSAwLTFoM3YtM0EuNS41IDAgMCAxIDggNHoiLz4mI3hhOzwvc3ZnPg==;fontColor=#FFFFFF;" parent="1" vertex="1"><mxGeometry x="1040" y="174" width="16" height="16" as="geometry"/></mxCell><mxCell id="CzHOy1YtrKSu_eFW259N-34" value="" style="shape=image;verticalLabelPosition=bottom;labelBackgroundColor=default;verticalAlign=top;aspect=fixed;imageAspect=0;image=data:image/svg+xml,PHN2ZyB4bWxucz0iaHR0cDovL3d3dy53My5vcmcvMjAwMC9zdmciIHdpZHRoPSIxNiIgaGVpZ2h0PSIxNiIgZmlsbD0iY3VycmVudENvbG9yIiBjbGFzcz0iYmkgYmktZ2VhciIgdmlld0JveD0iMCAwIDE2IDE2Ij4mI3hhOyAgPHBhdGggZD0iTTggNC43NTRhMy4yNDYgMy4yNDYgMCAxIDAgMCA2LjQ5MiAzLjI0NiAzLjI0NiAwIDAgMCAwLTYuNDkyek01Ljc1NCA4YTIuMjQ2IDIuMjQ2IDAgMSAxIDQuNDkyIDAgMi4yNDYgMi4yNDYgMCAwIDEtNC40OTIgMHoiLz4mI3hhOyAgPHBhdGggZD0iTTkuNzk2IDEuMzQzYy0uNTI3LTEuNzktMy4wNjUtMS43OS0zLjU5MiAwbC0uMDk0LjMxOWEuODczLjg3MyAwIDAgMS0xLjI1NS41MmwtLjI5Mi0uMTZjLTEuNjQtLjg5Mi0zLjQzMy45MDItMi41NCAyLjU0MWwuMTU5LjI5MmEuODczLjg3MyAwIDAgMS0uNTIgMS4yNTVsLS4zMTkuMDk0Yy0xLjc5LjUyNy0xLjc5IDMuMDY1IDAgMy41OTJsLjMxOS4wOTRhLjg3My44NzMgMCAwIDEgLjUyIDEuMjU1bC0uMTYuMjkyYy0uODkyIDEuNjQuOTAxIDMuNDM0IDIuNTQxIDIuNTRsLjI5Mi0uMTU5YS44NzMuODczIDAgMCAxIDEuMjU1LjUybC4wOTQuMzE5Yy41MjcgMS43OSAzLjA2NSAxLjc5IDMuNTkyIDBsLjA5NC0uMzE5YS44NzMuODczIDAgMCAxIDEuMjU1LS41MmwuMjkyLjE2YzEuNjQuODkzIDMuNDM0LS45MDIgMi41NC0yLjU0MWwtLjE1OS0uMjkyYS44NzMuODczIDAgMCAxIC41Mi0xLjI1NWwuMzE5LS4wOTRjMS43OS0uNTI3IDEuNzktMy4wNjUgMC0zLjU5MmwtLjMxOS0uMDk0YS44NzMuODczIDAgMCAxLS41Mi0xLjI1NWwuMTYtLjI5MmMuODkzLTEuNjQtLjkwMi0zLjQzMy0yLjU0MS0yLjU0bC0uMjkyLjE1OWEuODczLjg3MyAwIDAgMS0xLjI1NS0uNTJsLS4wOTQtLjMxOXptLTIuNjMzLjI4M2MuMjQ2LS44MzUgMS40MjgtLjgzNSAxLjY3NCAwbC4wOTQuMzE5YTEuODczIDEuODczIDAgMCAwIDIuNjkzIDEuMTE1bC4yOTEtLjE2Yy43NjQtLjQxNSAxLjYuNDIgMS4xODQgMS4xODVsLS4xNTkuMjkyYTEuODczIDEuODczIDAgMCAwIDEuMTE2IDIuNjkybC4zMTguMDk0Yy44MzUuMjQ2LjgzNSAxLjQyOCAwIDEuNjc0bC0uMzE5LjA5NGExLjg3MyAxLjg3MyAwIDAgMC0xLjExNSAyLjY5M2wuMTYuMjkxYy40MTUuNzY0LS40MiAxLjYtMS4xODUgMS4xODRsLS4yOTEtLjE1OWExLjg3MyAxLjg3MyAwIDAgMC0yLjY5MyAxLjExNmwtLjA5NC4zMThjLS4yNDYuODM1LTEuNDI4LjgzNS0xLjY3NCAwbC0uMDk0LS4zMTlhMS44NzMgMS44NzMgMCAwIDAtMi42OTItMS4xMTVsLS4yOTIuMTZjLS43NjQuNDE1LTEuNi0uNDItMS4xODQtMS4xODVsLjE1OS0uMjkxQTEuODczIDEuODczIDAgMCAwIDEuOTQ1IDguOTNsLS4zMTktLjA5NGMtLjgzNS0uMjQ2LS44MzUtMS40MjggMC0xLjY3NGwuMzE5LS4wOTRBMS44NzMgMS44NzMgMCAwIDAgMy4wNiA0LjM3N2wtLjE2LS4yOTJjLS40MTUtLjc2NC40Mi0xLjYgMS4xODUtMS4xODRsLjI5Mi4xNTlhMS44NzMgMS44NzMgMCAwIDAgMi42OTItMS4xMTVsLjA5NC0uMzE5eiIvPiYjeGE7PC9zdmc+;fontColor=#FFFFFF;" parent="1" vertex="1"><mxGeometry x="1010" y="50" width="30" height="30" as="geometry"/></mxCell><mxCell id="CzHOy1YtrKSu_eFW259N-35" value="" style="shape=image;verticalLabelPosition=bottom;labelBackgroundColor=default;verticalAlign=top;aspect=fixed;imageAspect=0;image=data:image/svg+xml,PHN2ZyB4bWxucz0iaHR0cDovL3d3dy53My5vcmcvMjAwMC9zdmciIHdpZHRoPSIxNiIgaGVpZ2h0PSIxNiIgZmlsbD0iY3VycmVudENvbG9yIiBjbGFzcz0iYmkgYmktYXJyb3ctcmVwZWF0IiB2aWV3Qm94PSIwIDAgMTYgMTYiPiYjeGE7ICA8cGF0aCBkPSJNMTEuNTM0IDdoMy45MzJhLjI1LjI1IDAgMCAxIC4xOTIuNDFsLTEuOTY2IDIuMzZhLjI1LjI1IDAgMCAxLS4zODQgMGwtMS45NjYtMi4zNmEuMjUuMjUgMCAwIDEgLjE5Mi0uNDF6bS0xMSAyaDMuOTMyYS4yNS4yNSAwIDAgMCAuMTkyLS40MUwyLjY5MiA2LjIzYS4yNS4yNSAwIDAgMC0uMzg0IDBMLjM0MiA4LjU5QS4yNS4yNSAwIDAgMCAuNTM0IDl6Ii8+JiN4YTsgIDxwYXRoIGZpbGwtcnVsZT0iZXZlbm9kZCIgZD0iTTggM2MtMS41NTIgMC0yLjk0LjcwNy0zLjg1NyAxLjgxOGEuNS41IDAgMSAxLS43NzEtLjYzNkE2LjAwMiA2LjAwMiAwIDAgMSAxMy45MTcgN0gxMi45QTUuMDAyIDUuMDAyIDAgMCAwIDggM3pNMy4xIDlhNS4wMDIgNS4wMDIgMCAwIDAgOC43NTcgMi4xODIuNS41IDAgMSAxIC43NzEuNjM2QTYuMDAyIDYuMDAyIDAgMCAxIDIuMDgzIDlIMy4xeiIvPiYjeGE7PC9zdmc+;fontColor=#FFFFFF;" parent="1" vertex="1"><mxGeometry x="52" y="50" width="26" height="26" as="geometry"/></mxCell><mxCell id="CzHOy1YtrKSu_eFW259N-36" value="" style="shape=image;verticalLabelPosition=bottom;labelBackgroundColor=default;verticalAlign=top;aspect=fixed;imageAspect=0;image=data:image/svg+xml,PHN2ZyB4bWxucz0iaHR0cDovL3d3dy53My5vcmcvMjAwMC9zdmciIHdpZHRoPSIxNiIgaGVpZ2h0PSIxNiIgZmlsbD0iY3VycmVudENvbG9yIiBjbGFzcz0iYmkgYmktYXJyb3ctcmVwZWF0IiB2aWV3Qm94PSIwIDAgMTYgMTYiPiYjeGE7ICA8cGF0aCBkPSJNMTEuNTM0IDdoMy45MzJhLjI1LjI1IDAgMCAxIC4xOTIuNDFsLTEuOTY2IDIuMzZhLjI1LjI1IDAgMCAxLS4zODQgMGwtMS45NjYtMi4zNmEuMjUuMjUgMCAwIDEgLjE5Mi0uNDF6bS0xMSAyaDMuOTMyYS4yNS4yNSAwIDAgMCAuMTkyLS40MUwyLjY5MiA2LjIzYS4yNS4yNSAwIDAgMC0uMzg0IDBMLjM0MiA4LjU5QS4yNS4yNSAwIDAgMCAuNTM0IDl6Ii8+JiN4YTsgIDxwYXRoIGZpbGwtcnVsZT0iZXZlbm9kZCIgZD0iTTggM2MtMS41NTIgMC0yLjk0LjcwNy0zLjg1NyAxLjgxOGEuNS41IDAgMSAxLS43NzEtLjYzNkE2LjAwMiA2LjAwMiAwIDAgMSAxMy45MTcgN0gxMi45QTUuMDAyIDUuMDAyIDAgMCAwIDggM3pNMy4xIDlhNS4wMDIgNS4wMDIgMCAwIDAgOC43NTcgMi4xODIuNS41IDAgMSAxIC43NzEuNjM2QTYuMDAyIDYuMDAyIDAgMCAxIDIuMDgzIDlIMy4xeiIvPiYjeGE7PC9zdmc+;fontColor=#FFFFFF;" parent="1" vertex="1"><mxGeometry x="144" y="50" width="26" height="26" as="geometry"/></mxCell><mxCell id="CzHOy1YtrKSu_eFW259N-37" value="" style="shape=image;verticalLabelPosition=bottom;labelBackgroundColor=default;verticalAlign=top;aspect=fixed;imageAspect=0;image=data:image/svg+xml,PHN2ZyB4bWxucz0iaHR0cDovL3d3dy53My5vcmcvMjAwMC9zdmciIHdpZHRoPSIxNiIgaGVpZ2h0PSIxNiIgZmlsbD0iY3VycmVudENvbG9yIiBjbGFzcz0iYmkgYmktYXJyb3ctcmVwZWF0IiB2aWV3Qm94PSIwIDAgMTYgMTYiPiYjeGE7ICA8cGF0aCBkPSJNMTEuNTM0IDdoMy45MzJhLjI1LjI1IDAgMCAxIC4xOTIuNDFsLTEuOTY2IDIuMzZhLjI1LjI1IDAgMCAxLS4zODQgMGwtMS45NjYtMi4zNmEuMjUuMjUgMCAwIDEgLjE5Mi0uNDF6bS0xMSAyaDMuOTMyYS4yNS4yNSAwIDAgMCAuMTkyLS40MUwyLjY5MiA2LjIzYS4yNS4yNSAwIDAgMC0uMzg0IDBMLjM0MiA4LjU5QS4yNS4yNSAwIDAgMCAuNTM0IDl6Ii8+JiN4YTsgIDxwYXRoIGZpbGwtcnVsZT0iZXZlbm9kZCIgZD0iTTggM2MtMS41NTIgMC0yLjk0LjcwNy0zLjg1NyAxLjgxOGEuNS41IDAgMSAxLS43NzEtLjYzNkE2LjAwMiA2LjAwMiAwIDAgMSAxMy45MTcgN0gxMi45QTUuMDAyIDUuMDAyIDAgMCAwIDggM3pNMy4xIDlhNS4wMDIgNS4wMDIgMCAwIDAgOC43NTcgMi4xODIuNS41IDAgMSAxIC43NzEuNjM2QTYuMDAyIDYuMDAyIDAgMCAxIDIuMDgzIDlIMy4xeiIvPiYjeGE7PC9zdmc+;fontColor=#FFFFFF;" parent="1" vertex="1"><mxGeometry x="227" y="50" width="26" height="26" as="geometry"/></mxCell><mxCell id="CzHOy1YtrKSu_eFW259N-38" value="" style="shape=image;verticalLabelPosition=bottom;labelBackgroundColor=default;verticalAlign=top;aspect=fixed;imageAspect=0;image=data:image/svg+xml,PHN2ZyB4bWxucz0iaHR0cDovL3d3dy53My5vcmcvMjAwMC9zdmciIHdpZHRoPSIxNiIgaGVpZ2h0PSIxNiIgZmlsbD0iY3VycmVudENvbG9yIiBjbGFzcz0iYmkgYmktYXJyb3dzLWNvbGxhcHNlIiB2aWV3Qm94PSIwIDAgMTYgMTYiPiYjeGE7ICA8cGF0aCBmaWxsLXJ1bGU9ImV2ZW5vZGQiIGQ9Ik0xIDhhLjUuNSAwIDAgMSAuNS0uNWgxM2EuNS41IDAgMCAxIDAgMWgtMTNBLjUuNSAwIDAgMSAxIDh6bTctOGEuNS41IDAgMCAxIC41LjV2My43OTNsMS4xNDYtMS4xNDdhLjUuNSAwIDAgMSAuNzA4LjcwOGwtMiAyYS41LjUgMCAwIDEtLjcwOCAwbC0yLTJhLjUuNSAwIDEgMSAuNzA4LS43MDhMNy41IDQuMjkzVi41QS41LjUgMCAwIDEgOCAwem0tLjUgMTEuNzA3LTEuMTQ2IDEuMTQ3YS41LjUgMCAwIDEtLjcwOC0uNzA4bDItMmEuNS41IDAgMCAxIC43MDggMGwyIDJhLjUuNSAwIDAgMS0uNzA4LjcwOEw4LjUgMTEuNzA3VjE1LjVhLjUuNSAwIDAgMS0xIDB2LTMuNzkzeiIvPiYjeGE7PC9zdmc+;rotation=90;fontColor=#FFFFFF;" parent="1" vertex="1"><mxGeometry x="307" y="50" width="26" height="26" as="geometry"/></mxCell><mxCell id="CzHOy1YtrKSu_eFW259N-40" value="" style="rounded=1;whiteSpace=wrap;html=1;arcSize=50;dashed=1;sketch=1;fontColor=#FFFFFF;" parent="1" vertex="1"><mxGeometry x="360" y="46" width="75" height="30" as="geometry"/></mxCell><mxCell id="CzHOy1YtrKSu_eFW259N-43" value="3" style="ellipse;whiteSpace=wrap;html=1;aspect=fixed;sketch=1;fontColor=#FFFFFF;" parent="1" vertex="1"><mxGeometry x="405" y="46" width="30" height="30" as="geometry"/></mxCell><mxCell id="CzHOy1YtrKSu_eFW259N-42" value="2" style="ellipse;whiteSpace=wrap;html=1;aspect=fixed;sketch=1;fontColor=#FFFFFF;" parent="1" vertex="1"><mxGeometry x="382.5" y="46" width="30" height="30" as="geometry"/></mxCell><mxCell id="CzHOy1YtrKSu_eFW259N-41" value="1" style="ellipse;whiteSpace=wrap;html=1;aspect=fixed;sketch=1;fontColor=#FFFFFF;" parent="1" vertex="1"><mxGeometry x="360" y="46" width="30" height="30" as="geometry"/></mxCell><mxCell id="CzHOy1YtrKSu_eFW259N-46" value="Edit Actions" style="text;html=1;points=[];align=left;verticalAlign=top;spacingTop=-4;fontSize=14;fontFamily=Verdana;fontColor=#FFFFFF;" parent="1" vertex="1"><mxGeometry x="980" y="76" width="90" height="20" as="geometry"/></mxCell><mxCell id="CzHOy1YtrKSu_eFW259N-47" value="" style="ellipse;whiteSpace=wrap;html=1;aspect=fixed;fontSize=16;strokeColor=default;strokeWidth=2;sketch=1;fontColor=#FFFFFF;" parent="1" vertex="1"><mxGeometry x="850" y="16" width="30" height="30" as="geometry"/></mxCell><mxCell id="CzHOy1YtrKSu_eFW259N-48" value="" style="ellipse;whiteSpace=wrap;html=1;aspect=fixed;fontSize=16;strokeColor=default;strokeWidth=2;sketch=1;fontColor=#FFFFFF;" parent="1" vertex="1"><mxGeometry x="860" y="16" width="30" height="30" as="geometry"/></mxCell><mxCell id="CzHOy1YtrKSu_eFW259N-49" value="AJ" style="ellipse;whiteSpace=wrap;html=1;aspect=fixed;fontSize=16;strokeColor=default;strokeWidth=2;sketch=1;fontColor=#FFFFFF;" parent="1" vertex="1"><mxGeometry x="870" y="16" width="30" height="30" as="geometry"/></mxCell><mxCell id="CzHOy1YtrKSu_eFW259N-50" value="CU" style="ellipse;whiteSpace=wrap;html=1;aspect=fixed;fontSize=16;strokeColor=default;strokeWidth=2;sketch=1;fontColor=#FFFFFF;" parent="1" vertex="1"><mxGeometry x="920" y="16" width="30" height="30" as="geometry"/></mxCell><mxCell id="CzHOy1YtrKSu_eFW259N-51" value="Current User" style="text;html=1;points=[];align=left;verticalAlign=top;spacingTop=-4;fontSize=14;fontFamily=Verdana;fontColor=#FFFFFF;" parent="1" vertex="1"><mxGeometry x="960" y="21" width="90" height="20" as="geometry"/></mxCell><mxCell id="I5Z_wHgONmtk41ayVbxy-1" value="Library" style="text;html=1;points=[];align=left;verticalAlign=top;spacingTop=-4;fontSize=14;fontFamily=Verdana;fontColor=#FFFFFF;" parent="1" vertex="1"><mxGeometry x="230" y="21" width="60" height="20" as="geometry"/></mxCell><mxCell id="OUxUkMMq_oKkLWEc-kX7-1" value="Help" style="text;html=1;points=[];align=left;verticalAlign=top;spacingTop=-4;fontSize=14;fontFamily=Verdana;fontColor=#FFFFFF;" parent="1" vertex="1"><mxGeometry x="290" y="21" width="60" height="20" as="geometry"/></mxCell><mxCell id="30s2jukhrg2StP_I4e-i-1" value="Compose" style="text;html=1;points=[];align=left;verticalAlign=top;spacingTop=-4;fontSize=14;fontFamily=Verdana;fontColor=#FFFFFF;" parent="1" vertex="1"><mxGeometry x="155" y="21" width="60" height="20" as="geometry"/></mxCell><mxCell id="30s2jukhrg2StP_I4e-i-2" value="Beatmap" style="whiteSpace=wrap;html=1;rounded=0;shadow=0;labelBackgroundColor=none;strokeWidth=1;fillColor=#dae8fc;fontFamily=Verdana;fontSize=12;align=center;comic=1;strokeColor=#6c8ebf;sketch=1;fontColor=#FFFFFF;" parent="1" vertex="1"><mxGeometry x="450" y="10" width="75" height="29" as="geometry"/></mxCell><mxCell id="30s2jukhrg2StP_I4e-i-3" value="Storyboard" style="whiteSpace=wrap;html=1;rounded=0;shadow=0;labelBackgroundColor=none;strokeWidth=1;fillColor=none;fontFamily=Verdana;fontSize=12;align=center;comic=1;fontColor=#FFFFFF;" parent="1" vertex="1"><mxGeometry x="525" y="10" width="75" height="29" as="geometry"/></mxCell><mxCell id="30s2jukhrg2StP_I4e-i-4" value="Hitsounds" style="whiteSpace=wrap;html=1;rounded=0;shadow=0;labelBackgroundColor=none;strokeWidth=1;fillColor=none;fontFamily=Verdana;fontSize=12;align=center;comic=1;fontColor=#FFFFFF;" parent="1" vertex="1"><mxGeometry x="600" y="10" width="75" height="29" as="geometry"/></mxCell><mxCell id="30s2jukhrg2StP_I4e-i-5" value="Modding" style="whiteSpace=wrap;html=1;rounded=0;shadow=0;labelBackgroundColor=none;strokeWidth=1;fillColor=#dae8fc;fontFamily=Verdana;fontSize=12;align=center;comic=1;strokeColor=#6c8ebf;sketch=1;fontColor=#FFFFFF;" parent="1" vertex="1"><mxGeometry x="840" y="470" width="75" height="29" as="geometry"/></mxCell><mxCell id="30s2jukhrg2StP_I4e-i-6" value="Stats" style="whiteSpace=wrap;html=1;rounded=0;shadow=0;labelBackgroundColor=none;strokeWidth=1;fillColor=none;fontFamily=Verdana;fontSize=12;align=center;comic=1;fontColor=#FFFFFF;" parent="1" vertex="1"><mxGeometry x="915" y="470" width="75" height="29" as="geometry"/></mxCell><mxCell id="30s2jukhrg2StP_I4e-i-7" value="Issues (5)" style="whiteSpace=wrap;html=1;rounded=0;shadow=0;labelBackgroundColor=none;strokeWidth=1;fillColor=none;fontFamily=Verdana;fontSize=12;align=center;comic=1;fontColor=#FFFFFF;" parent="1" vertex="1"><mxGeometry x="990" y="470" width="80" height="29" as="geometry"/></mxCell></root></mxGraphModel></diagram></mxfile>